<svg width="240" height="160" viewBox="0 0 240 160" xmlns="http://www.w3.org/2000/svg" role="img" aria-label="Cloud">
  <defs>
    <radialGradient id="sunGrad" cx="50%" cy="50%" r="60%">
      <stop offset="0%" stop-color="#FFC44D"/>
      <stop offset="70%" stop-color="#FF9E2A"/>
      <stop offset="100%" stop-color="#FF7A00"/>
    </radialGradient>
    <linearGradient id="cloudGrad" x1="0%" y1="0%" x2="100%" y2="100%">
      <stop offset="0%" stop-color="#FFFFFF" stop-opacity="0.9"/>
      <stop offset="100%" stop-color="#E9F0FF" stop-opacity="0.9"/>
    </linearGradient>
    <filter id="soft" x="-20%" y="-20%" width="140%" height="140%">
      <feGaussianBlur in="SourceAlpha" stdDeviation="3" result="blur"/>
      <feOffset in="blur" dx="0" dy="2" result="offset"/>
      <feMerge>
        <feMergeNode in="offset"/>
        <feMergeNode in="SourceGraphic"/>
      </feMerge>
    </filter>
  </defs>
  <circle cx="170" cy="50" r="36" fill="url(#sunGrad)"/>
  <path filter="url(#soft)" fill="url(#cloudGrad)" d="M70,110 C50,110 40,95 40,80 C40,62 54,48 72,48 C78,36 92,28 108,28 C128,28 145,40 150,57 C154,56 158,56 162,56 C182,56 198,70 198,88 C198,106 182,120 162,120 L86,120 C80,120 74,118 70,110 Z"/>
</svg>